<svg width="345" height="75" viewBox="0 0 345 75" fill="none" xmlns="http://www.w3.org/2000/svg">
<g filter="url(#filter0_dd_4_31)">
<path d="M5.25 67C4.41667 67 4 66.5833 4 65.75V1.6C4 0.766663 4.41667 0.349997 5.25 0.349997H19.4C20.2333 0.349997 20.65 0.766663 20.65 1.6V25.35H33V1.6C33 0.766663 33.4167 0.349997 34.25 0.349997H48.4C49.2333 0.349997 49.65 0.766663 49.65 1.6V65.75C49.65 66.5833 49.2333 67 48.4 67H34.25C33.4167 67 33 66.5833 33 65.75V38.65H20.65V65.75C20.65 66.5833 20.2333 67 19.4 67H5.25ZM74.4672 67C73.7005 67 73.0339 66.7167 72.4672 66.15L62.4672 56.15C61.9005 55.6167 61.6172 54.95 61.6172 54.15V13.15C61.6172 12.3833 61.9005 11.7167 62.4672 11.15L72.4672 1.15C73.0339 0.616664 73.7005 0.349997 74.4672 0.349997H94.1172C94.9172 0.349997 95.5839 0.616664 96.1172 1.15L106.117 11.15C106.684 11.7167 106.967 12.3833 106.967 13.15V54.15C106.967 54.95 106.684 55.6167 106.117 56.15L96.1172 66.15C95.5839 66.7167 94.9172 67 94.1172 67H74.4672ZM80.3672 53.65H88.2172C89.6172 53.65 90.3172 52.7167 90.3172 50.85V16.5C90.3172 14.6 89.6172 13.65 88.2172 13.65H80.3672C79.0005 13.65 78.3172 14.6 78.3172 16.5V50.85C78.3172 52.7167 79.0005 53.65 80.3672 53.65ZM120.191 67C119.358 67 118.941 66.5833 118.941 65.75V1.6C118.941 0.766663 119.358 0.349997 120.191 0.349997H147.291C148.091 0.349997 148.758 0.566664 149.291 0.999997L160.791 12.4C161.158 12.7333 161.375 13.0167 161.441 13.25C161.541 13.4833 161.591 13.8667 161.591 14.4V28.1C161.591 28.5333 161.425 28.9167 161.091 29.25L155.591 34.6L150.941 38.6L156.441 45.9L162.091 58C162.225 58.3 162.325 58.6 162.391 58.9C162.491 59.1667 162.541 59.5 162.541 59.9V65.75C162.541 66.5833 162.125 67 161.291 67H148.091C147.358 67 146.858 66.6667 146.591 66L138.541 42.6H134.791V65.75C134.791 66.5833 134.375 67 133.541 67H120.191ZM140.291 30.35C143.058 30.35 144.941 29.7833 145.941 28.65C146.941 27.4833 147.441 25.3167 147.441 22.15C147.441 18.95 146.941 16.7833 145.941 15.65C144.941 14.4833 143.058 13.9 140.291 13.9C137.558 13.9 135.675 14.4833 134.641 15.65C133.608 16.7833 133.091 18.95 133.091 22.15C133.091 25.3167 133.608 27.4833 134.641 28.65C135.675 29.7833 137.558 30.35 140.291 30.35ZM171.754 67C170.921 67 170.504 66.5833 170.504 65.75V1.6C170.504 0.766663 170.921 0.349997 171.754 0.349997H185.904C186.737 0.349997 187.154 0.766663 187.154 1.6V65.75C187.154 66.5833 186.737 67 185.904 67H171.754ZM204.217 67C203.517 67 203.017 66.7167 202.717 66.15L196.467 55.6C196.101 55 196.034 54.4167 196.267 53.85L213.217 14L212.767 15.65V12.75L213.267 13.65H198.217C197.384 13.65 196.967 13.2333 196.967 12.4V1.6C196.967 0.766663 197.384 0.349997 198.217 0.349997H222.467C223.134 0.349997 223.634 0.599997 223.967 1.1L231.117 11.15C231.517 11.65 231.567 12.2333 231.267 12.9L214.117 53.1L214.517 50.25V55L213.717 53.65H229.467C230.301 53.65 230.717 54.0667 230.717 54.9V65.75C230.717 66.5833 230.301 67 229.467 67H204.217ZM253.276 67C252.509 67 251.842 66.7167 251.276 66.15L241.276 56.15C240.709 55.6167 240.426 54.95 240.426 54.15V13.15C240.426 12.3833 240.709 11.7167 241.276 11.15L251.276 1.15C251.842 0.616664 252.509 0.349997 253.276 0.349997H272.926C273.726 0.349997 274.392 0.616664 274.926 1.15L284.926 11.15C285.492 11.7167 285.776 12.3833 285.776 13.15V54.15C285.776 54.95 285.492 55.6167 284.926 56.15L274.926 66.15C274.392 66.7167 273.726 67 272.926 67H253.276ZM259.176 53.65H267.026C268.426 53.65 269.126 52.7167 269.126 50.85V16.5C269.126 14.6 268.426 13.65 267.026 13.65H259.176C257.809 13.65 257.126 14.6 257.126 16.5V50.85C257.126 52.7167 257.809 53.65 259.176 53.65ZM299 67C298.167 67 297.75 66.5833 297.75 65.75V1.6C297.75 0.766663 298.167 0.349997 299 0.349997H327.4C328.2 0.349997 328.867 0.616664 329.4 1.15L339.4 11.15C339.967 11.7167 340.25 12.3833 340.25 13.15V65.75C340.25 66.5833 339.833 67 339 67H324.85C324.017 67 323.6 66.5833 323.6 65.75V13.65H314.4V65.75C314.4 66.5833 313.983 67 313.15 67H299Z" fill="black"/>
</g>
<defs>
<filter id="filter0_dd_4_31" x="0" y="0.349976" width="344.25" height="74.65" filterUnits="userSpaceOnUse" color-interpolation-filters="sRGB">
<feFlood flood-opacity="0" result="BackgroundImageFix"/>
<feColorMatrix in="SourceAlpha" type="matrix" values="0 0 0 0 0 0 0 0 0 0 0 0 0 0 0 0 0 0 127 0" result="hardAlpha"/>
<feOffset dy="4"/>
<feGaussianBlur stdDeviation="2"/>
<feComposite in2="hardAlpha" operator="out"/>
<feColorMatrix type="matrix" values="0 0 0 0 0 0 0 0 0 0 0 0 0 0 0 0 0 0 0.25 0"/>
<feBlend mode="normal" in2="BackgroundImageFix" result="effect1_dropShadow_4_31"/>
<feColorMatrix in="SourceAlpha" type="matrix" values="0 0 0 0 0 0 0 0 0 0 0 0 0 0 0 0 0 0 127 0" result="hardAlpha"/>
<feOffset dy="4"/>
<feGaussianBlur stdDeviation="2"/>
<feComposite in2="hardAlpha" operator="out"/>
<feColorMatrix type="matrix" values="0 0 0 0 0 0 0 0 0 0 0 0 0 0 0 0 0 0 0.25 0"/>
<feBlend mode="normal" in2="effect1_dropShadow_4_31" result="effect2_dropShadow_4_31"/>
<feBlend mode="normal" in="SourceGraphic" in2="effect2_dropShadow_4_31" result="shape"/>
</filter>
</defs>
</svg>
